<svg width="32" height="32" viewBox="0 0 32 32" fill="none" xmlns="http://www.w3.org/2000/svg">
<path d="M6 18C7.0515 17.9967 8.09327 18.2014 9.06537 18.6023C10.0375 19.0031 10.9207 19.5923 11.6642 20.3358C12.4077 21.0794 12.9969 21.9626 13.3978 22.9347C13.7986 23.9068 14.0033 24.9485 14 26" stroke="black" stroke-width="2" stroke-linecap="round" stroke-linejoin="round"/>
<path d="M6 12C9.71303 12 13.274 13.475 15.8995 16.1005C18.525 18.726 20 22.287 20 26" stroke="black" stroke-width="2" stroke-linecap="round" stroke-linejoin="round"/>
<path d="M6 6.00004C8.62689 5.9951 11.2287 6.51063 13.6553 7.51686C16.0818 8.52309 18.285 10.0001 20.1375 11.8625C22 13.7151 23.4769 15.9182 24.4832 18.3448C25.4894 20.7713 26.0049 23.3731 26 26" stroke="black" stroke-width="2" stroke-linecap="round" stroke-linejoin="round"/>
<path d="M6.5 27C7.32843 27 8 26.3284 8 25.5C8 24.6716 7.32843 24 6.5 24C5.67157 24 5 24.6716 5 25.5C5 26.3284 5.67157 27 6.5 27Z" fill="black"/>
</svg>
